<svg width="40" height="40" viewBox="0 0 40 40" fill="none" xmlns="http://www.w3.org/2000/svg">
    <circle cx="20" cy="20" r="20" fill="currentColor"/>
    <path d="M28 28V26C28 24.9391 27.5786 23.9217 26.8284 23.1716C26.0783 22.4214 25.0609 22 24 22H16C14.9391 22 13.9217 22.4214 13.1716 23.1716C12.4214 23.9217 12 24.9391 12 26V28" stroke="#F7FAFC" stroke-width="2" stroke-linecap="round" stroke-linejoin="round"/>
    <path d="M20 18C22.2091 18 24 16.2091 24 14C24 11.7909 22.2091 10 20 10C17.7909 10 16 11.7909 16 14C16 16.2091 17.7909 18 20 18Z" stroke="#F7FAFC" stroke-width="2" stroke-linecap="round" stroke-linejoin="round"/>
</svg>
